<?xml version="1.0" encoding="UTF-8" standalone="no"?>
<!DOCTYPE svg PUBLIC "-//W3C//DTD SVG 1.1//EN" "http://www.w3.org/Graphics/SVG/1.1/DTD/svg11.dtd">
<svg width="100%" height="100%" viewBox="0 0 256 150" version="1.1" xmlns="http://www.w3.org/2000/svg" xmlns:xlink="http://www.w3.org/1999/xlink" xml:space="preserve" xmlns:serif="http://www.serif.com/" style="fill-rule:evenodd;clip-rule:evenodd;stroke-linejoin:round;stroke-miterlimit:2;">
    <g id="画板1" transform="matrix(1,0,0,0.997016,0,0)">
        <g transform="matrix(0.953125,0,0,0.953125,6,3.52612)">
            <rect x="0" y="0" width="256" height="150.449" style="fill:none;"/>
        </g>
        <g transform="matrix(0.953125,0,0,0.988219,6,3.52612)">
            <ellipse cx="128" cy="61.912" rx="128" ry="61.912" style="fill:rgb(247,245,247);"/>
        </g>
        <g transform="matrix(0.953125,0,0,0.955975,6,3.52612)">
            <path d="M256,64L256,86C256,121.323 198.645,150 128,150C57.355,150 0,121.323 0,86L0,64C0,99.323 57.355,128 128,128C198.645,128 256,99.323 256,64ZM0,64L0,64Z" style="fill:rgb(232,230,232);"/>
        </g>
    </g>
</svg>
